<svg id="visual" viewBox="0 0 900 150" width="900" height="150" xmlns="http://www.w3.org/2000/svg" xmlns:xlink="http://www.w3.org/1999/xlink" version="1.1"><rect x="0" y="0" width="900" height="150" fill="#eff6ff"></rect><path d="M0 37L21.5 46.2C43 55.3 86 73.7 128.8 84.2C171.7 94.7 214.3 97.3 257.2 94C300 90.7 343 81.3 385.8 82.2C428.7 83 471.3 94 514.2 97.2C557 100.3 600 95.7 642.8 87C685.7 78.3 728.3 65.7 771.2 64.2C814 62.7 857 72.3 878.5 77.2L900 82L900 151L878.5 151C857 151 814 151 771.2 151C728.3 151 685.7 151 642.8 151C600 151 557 151 514.2 151C471.3 151 428.7 151 385.8 151C343 151 300 151 257.2 151C214.3 151 171.7 151 128.8 151C86 151 43 151 21.5 151L0 151Z" fill="#172554" stroke-linecap="round" stroke-linejoin="miter"></path></svg>